<svg width="80" height="80" viewBox="0 0 80 80" fill="none" xmlns="http://www.w3.org/2000/svg">
<g clip-path="url(#clip0_100_297)">
<path d="M0 28.9524C0 18.8181 0 13.751 1.97226 9.88017C3.70711 6.47533 6.47533 3.70711 9.88017 1.97226C13.751 0 18.8181 0 28.9524 0H51.0476C61.1819 0 66.249 0 70.1198 1.97226C73.5247 3.70711 76.2929 6.47533 78.0277 9.88017C80 13.751 80 18.8181 80 28.9524V51.0476C80 61.1819 80 66.249 78.0277 70.1198C76.2929 73.5247 73.5247 76.2929 70.1198 78.0277C66.249 80 61.1819 80 51.0476 80H28.9524C18.8181 80 13.751 80 9.88017 78.0277C6.47533 76.2929 3.70711 73.5247 1.97226 70.1198C0 66.249 0 61.1819 0 51.0476V28.9524Z" fill="black"/>
<path d="M38.767 50.275H26.37L23.8477 58.3113C23.7777 58.6099 23.5027 58.8213 23.2037 58.8067H16.9247C16.5666 58.8067 16.4414 58.6049 16.549 58.2012L27.2823 26.4966C27.3897 26.1664 27.4971 25.7903 27.6044 25.3682C27.7448 24.6338 27.8167 23.8874 27.8191 23.139C27.7883 22.918 27.9826 22.7227 28.1947 22.7537H36.7276C36.9776 22.7537 37.1207 22.8454 37.157 23.0289L49.3394 58.2562C49.4467 58.6235 49.3393 58.807 49.0173 58.8067H42.0406C41.7959 58.8345 41.5622 58.6667 41.504 58.4214L38.767 50.275ZM28.302 43.3397H36.7813C35.3882 38.5792 33.816 33.8812 32.5417 29.0836C31.1669 33.8893 29.6669 38.6756 28.302 43.3397Z" fill="#FFD0D0"/>
<path d="M56.5837 28.5881C56.0363 28.6106 55.4905 28.5144 54.9819 28.3057C54.4732 28.0971 54.0133 27.7806 53.632 27.3771C53.2519 26.9561 52.9566 26.4622 52.7632 25.9238C52.5697 25.3854 52.482 24.813 52.5049 24.2397C52.4854 23.672 52.5829 23.1065 52.791 22.5801C52.999 22.0537 53.313 21.5783 53.7125 21.1848C54.108 20.7954 54.5749 20.4903 55.0862 20.2872C55.5974 20.0841 56.1429 19.9869 56.691 20.0014C57.979 20.0014 58.9898 20.3959 59.7232 21.1848C60.0934 21.5948 60.3811 22.0757 60.5699 22.5999C60.7587 23.1241 60.8448 23.6813 60.8233 24.2397C60.8457 24.8153 60.7552 25.3896 60.5569 25.9286C60.3587 26.4675 60.0569 26.9601 59.6695 27.3771C59.2645 27.7865 58.7813 28.1055 58.2502 28.3139C57.7191 28.5223 57.1517 28.6157 56.5837 28.5881ZM52.8806 58.256V31.9456C52.8806 31.6154 53.0232 31.4502 53.31 31.4502H59.911C60.197 31.4502 60.3401 31.6154 60.3404 31.9456V58.256C60.3404 58.6233 60.1973 58.8068 59.911 58.8065H53.3637C53.0417 58.8065 52.8807 58.623 52.8806 58.256Z" fill="#FFD0D0"/>
</g>
<defs>
<clipPath id="clip0_100_297">
<rect width="80" height="80" fill="white"/>
</clipPath>
</defs>
</svg>