<svg width="72" height="80" viewBox="0 0 72 80" fill="none" xmlns="http://www.w3.org/2000/svg">
<path fill-rule="evenodd" clip-rule="evenodd" d="M7.10725 72.0026L0.6875 0H71.2303L64.8037 71.9907L35.9162 80L7.10725 72.0026Z" fill="black"/>
<path fill-rule="evenodd" clip-rule="evenodd" d="M36.0181 73.8743L59.3316 67.4607L64.7939 5.99634H36.0181V73.8743Z" fill="black"/>
<path fill-rule="evenodd" clip-rule="evenodd" d="M15.3823 32.4497L16.1557 41.2675L36.0182 32.4497V23.6176L15.3823 32.4497Z" fill="#FFD0D0"/>
<path fill-rule="evenodd" clip-rule="evenodd" d="M58.0165 14.1897L36.0181 23.6176V32.4497L57.258 23.0076L58.0165 14.1897Z" fill="#FFD0D0"/>
<path fill-rule="evenodd" clip-rule="evenodd" d="M36.0181 55.5215L35.9498 55.5317L26.0994 52.8864L25.4559 45.8529H16.5906L17.8277 59.7093L35.9479 64.7265L36.0181 64.7099V55.5215Z" fill="#FFD0D0"/>
<path fill-rule="evenodd" clip-rule="evenodd" d="M36.0181 32.4497V41.2676H46.8027L45.8225 52.7962L36.0181 55.529V64.7167L54.0781 59.6995L56.4563 32.4497H36.0181Z" fill="#FFD0D0"/>
<path fill-rule="evenodd" clip-rule="evenodd" d="M36.0182 32.4497H15.3823L16.1557 41.2676H36.0182V32.4497Z" fill="#FFD0D0"/>
<path fill-rule="evenodd" clip-rule="evenodd" d="M36.0182 23.0076V14.1897H35.9286H13.8145L14.5969 23.0076H36.0182Z" fill="#FFD0D0"/>
<path fill-rule="evenodd" clip-rule="evenodd" d="M36.0181 14.1897V22.897V23.0076H57.258L58.0165 14.1897H36.0181Z" fill="#FFD0D0"/>
</svg>