<svg width="69" height="61" viewBox="0 0 69 61" fill="none" xmlns="http://www.w3.org/2000/svg">
<path fill-rule="evenodd" clip-rule="evenodd" d="M34.5 19.2837C28.1462 19.2837 23 24.43 23 30.7837C23 35.8725 26.2919 40.1706 30.8631 41.6943C31.4381 41.795 31.6538 41.45 31.6538 41.1481C31.6538 40.875 31.6394 39.9693 31.6394 39.0062C28.75 39.5381 28.0025 38.3018 27.7725 37.655C27.6431 37.3243 27.0825 36.3037 26.5938 36.0306C26.1913 35.815 25.6163 35.2831 26.5794 35.2687C27.485 35.2543 28.1319 36.1025 28.3475 36.4475C29.3825 38.1868 31.0356 37.6981 31.6969 37.3962C31.7975 36.6487 32.0994 36.1456 32.43 35.8581C29.8713 35.5706 27.1975 34.5787 27.1975 30.18C27.1975 28.9293 27.6431 27.8943 28.3762 27.0893C28.2613 26.8018 27.8587 25.6231 28.4913 24.0418C28.4913 24.0418 29.4544 23.74 31.6538 25.2206C32.5738 24.9618 33.5513 24.8325 34.5288 24.8325C35.5063 24.8325 36.4838 24.9618 37.4038 25.2206C39.6031 23.7256 40.5662 24.0418 40.5662 24.0418C41.1987 25.6231 40.7962 26.8018 40.6812 27.0893C41.4144 27.8943 41.86 28.915 41.86 30.18C41.86 34.5931 39.1719 35.5706 36.6131 35.8581C37.03 36.2175 37.3894 36.9075 37.3894 37.9856C37.3894 39.5237 37.375 40.76 37.375 41.1481C37.375 41.45 37.5906 41.8093 38.1656 41.6943C42.7081 40.1706 46 35.8581 46 30.7837C46 24.43 40.8538 19.2837 34.5 19.2837Z" fill="#DF4952"/>
</svg>