<svg width="23" height="23" viewBox="0 0 23 23" fill="none" xmlns="http://www.w3.org/2000/svg">
<path fill-rule="evenodd" clip-rule="evenodd" d="M11.5 0.283703C5.14625 0.283703 0 5.42995 0 11.7837C0 16.8725 3.29187 21.1706 7.86312 22.6943C8.43812 22.795 8.65375 22.45 8.65375 22.1481C8.65375 21.875 8.63938 20.9693 8.63938 20.0062C5.75 20.5381 5.0025 19.3018 4.7725 18.655C4.64313 18.3243 4.0825 17.3037 3.59375 17.0306C3.19125 16.815 2.61625 16.2831 3.57938 16.2687C4.485 16.2543 5.13187 17.1025 5.3475 17.4475C6.3825 19.1868 8.03563 18.6981 8.69688 18.3962C8.7975 17.6487 9.09938 17.1456 9.43 16.8581C6.87125 16.5706 4.1975 15.5787 4.1975 11.18C4.1975 9.92933 4.64312 8.89433 5.37625 8.08933C5.26125 7.80183 4.85875 6.62308 5.49125 5.04183C5.49125 5.04183 6.45438 4.73995 8.65375 6.22058C9.57375 5.96183 10.5513 5.83245 11.5288 5.83245C12.5063 5.83245 13.4838 5.96183 14.4038 6.22058C16.6031 4.72558 17.5662 5.04183 17.5662 5.04183C18.1987 6.62308 17.7962 7.80183 17.6812 8.08933C18.4144 8.89433 18.86 9.91495 18.86 11.18C18.86 15.5931 16.1719 16.5706 13.6131 16.8581C14.03 17.2175 14.3894 17.9075 14.3894 18.9856C14.3894 20.5237 14.375 21.76 14.375 22.1481C14.375 22.45 14.5906 22.8093 15.1656 22.6943C19.7081 21.1706 23 16.8581 23 11.7837C23 5.42995 17.8538 0.283703 11.5 0.283703V0.283703Z" fill="#DF4952"/>
</svg>