<svg width="72" height="80" viewBox="0 0 72 80" fill="none" xmlns="http://www.w3.org/2000/svg">
<path fill-rule="evenodd" clip-rule="evenodd" d="M7.10706 72.0029L0.6875 0H71.2274L64.8011 71.9916L35.9143 80L7.10706 72.0029Z" fill="black"/>
<path fill-rule="evenodd" clip-rule="evenodd" d="M35.9575 73.8788L59.2994 67.4075L64.7912 5.88733H35.9575V73.8788Z" fill="black"/>
<path d="M24.272 32.5921H35.9576V41.4229H16.1958L13.814 14.7183H35.9576V23.5492H23.465L24.272 32.5921Z" fill="#FFD0D0"/>
<path d="M35.9189 55.5372L35.9576 55.5269V64.7147L35.9169 64.7259L17.8276 59.7042L16.5904 45.8385H25.4552L26.0839 52.8815L35.9189 55.5372Z" fill="#FFD0D0"/>
<path d="M35.927 14.7183H58.0484L57.2577 23.5492H35.927V14.7183Z" fill="#FFD0D0"/>
<path d="M35.927 41.4229V32.5922H56.4542L56.2387 34.9635L54.0307 59.7042L35.927 64.7217V55.5342L45.7762 52.8759L46.8012 41.4229H35.927Z" fill="#FFD0D0"/>
</svg>