<svg width="80" height="80" viewBox="0 0 80 80" fill="none" xmlns="http://www.w3.org/2000/svg">
<path d="M65.7761 27.4449C64.9462 27.1592 64.0862 26.889 63.2008 26.6334C63.3463 26.0394 63.4799 25.4532 63.5986 24.8769C65.5481 15.414 64.2735 7.7907 59.921 5.28078C55.7476 2.87409 48.9223 5.38345 42.029 11.3824C41.3662 11.9593 40.7015 12.57 40.037 13.2101C39.5943 12.7866 39.1523 12.3774 38.7114 11.9859C31.4871 5.57142 24.2458 2.86826 19.8977 5.38544C15.7282 7.7991 14.4935 14.9658 16.2483 23.9338C16.4177 24.8 16.6158 25.6846 16.8398 26.5839C15.815 26.8749 14.8256 27.185 13.8789 27.5149C5.40916 30.4679 0 35.0958 0 39.8962C0 44.8542 5.80674 49.827 14.6286 52.8423C15.3248 53.0802 16.0472 53.3052 16.7917 53.5188C16.55 54.4916 16.3398 55.4448 16.1634 56.3745C14.4902 65.1869 15.7969 72.1842 19.9552 74.5826C24.2504 77.0595 31.4589 74.5136 38.4782 68.3779C39.033 67.8929 39.5897 67.3785 40.1475 66.8394C40.8705 67.5356 41.5923 68.1945 42.3103 68.8125C49.1093 74.6632 55.8244 77.0258 59.9789 74.6207C64.2698 72.1366 65.6643 64.6198 63.8538 55.4744C63.7155 54.7759 63.5546 54.0624 63.3739 53.3361C63.8802 53.1865 64.3771 53.032 64.8617 52.8714C74.0329 49.8327 80 44.9204 80 39.8962C80 35.0785 74.4164 30.4193 65.7761 27.4449ZM63.7869 49.6274C63.3494 49.7722 62.9006 49.9122 62.4432 50.0479C61.4308 46.8426 60.0643 43.4343 58.3921 39.9129C59.9878 36.4754 61.3015 33.1107 62.2856 29.9262C63.1039 30.163 63.8982 30.4128 64.6636 30.6763C72.0667 33.2249 76.5824 36.9929 76.5824 39.8962C76.5824 42.9889 71.7056 47.0035 63.7869 49.6274ZM60.5012 56.1381C61.3017 60.1821 61.4161 63.8384 60.8858 66.6966C60.4093 69.2649 59.4511 70.9772 58.2664 71.663C55.7452 73.1223 50.3537 71.2254 44.5391 66.2218C43.8725 65.6482 43.2011 65.0358 42.5276 64.3876C44.7818 61.9222 47.0346 59.0562 49.2334 55.8731C53.1008 55.5299 56.7547 54.9689 60.0681 54.2029C60.2313 54.8612 60.3763 55.5069 60.5012 56.1381ZM27.2738 71.4108C24.8106 72.2808 22.8488 72.3057 21.6629 71.6219C19.1394 70.1664 18.0904 64.5482 19.5213 57.0119C19.6852 56.1488 19.8803 55.2622 20.1052 54.356C23.3823 55.0807 27.0094 55.6021 30.886 55.9164C33.0996 59.0311 35.4176 61.894 37.7535 64.4008C37.2432 64.8935 36.7348 65.3626 36.2293 65.8046C33.1254 68.5177 30.015 70.4427 27.2738 71.4108ZM15.7339 49.6084C11.8331 48.2751 8.61158 46.5423 6.40339 44.6514C4.41921 42.9521 3.41743 41.2651 3.41743 39.8962C3.41743 36.9832 7.76046 33.2676 15.0039 30.7421C15.8827 30.4357 16.8028 30.1469 17.7576 29.8756C18.7586 33.132 20.0718 36.5366 21.6566 39.9794C20.0513 43.4733 18.7195 46.9322 17.7086 50.2267C17.0279 50.0311 16.3685 49.8252 15.7339 49.6084ZM19.6022 23.2774C18.0988 15.5939 19.0973 9.79767 21.6099 8.34321C24.2863 6.79377 30.2045 9.00294 36.4422 14.5416C36.8409 14.8956 37.2412 15.2661 37.6426 15.6494C35.3182 18.1452 33.0215 20.9867 30.8275 24.083C27.0651 24.4317 23.4635 24.9919 20.1522 25.7421C19.944 24.9046 19.7596 24.0819 19.6022 23.2774ZM54.1106 31.7984C53.319 30.4311 52.5063 29.0961 51.6779 27.7976C54.2304 28.1203 56.6759 28.5486 58.9725 29.0728C58.283 31.2825 57.4236 33.593 56.412 35.9615C55.6864 34.5838 54.9188 33.1947 54.1106 31.7984ZM40.0382 18.0918C41.6145 19.7996 43.1932 21.7064 44.7459 23.7751C43.1812 23.7012 41.5971 23.6628 40 23.6628C38.4179 23.6628 36.8456 23.7004 35.2906 23.773C36.8449 21.7234 38.4372 19.8193 40.0382 18.0918ZM25.8756 31.8221C25.0849 33.1932 24.3316 34.5748 23.6173 35.9589C22.6221 33.5987 21.7707 31.2777 21.0752 29.0366C23.3577 28.5258 25.7917 28.1082 28.328 27.7916C27.4878 29.1021 26.6685 30.4469 25.8756 31.8218V31.8221ZM28.401 52.2447C25.7806 51.9523 23.31 51.5562 21.028 51.0595C21.7346 48.7784 22.6048 46.4079 23.6211 43.9968C24.3373 45.3799 25.0935 46.762 25.8891 48.1362H25.8893C26.6997 49.5361 27.5392 50.9074 28.401 52.2447ZM40.1327 61.9416C38.5129 60.1939 36.8973 58.2607 35.3193 56.1813C36.8511 56.2414 38.4128 56.2721 40 56.2721C41.6306 56.2721 43.2426 56.2354 44.8292 56.1648C43.2713 58.2817 41.6984 60.2179 40.1327 61.9416ZM56.4447 43.8739C57.5139 46.311 58.4153 48.6692 59.131 50.9114C56.8115 51.4405 54.3071 51.8667 51.6685 52.1834C52.4989 50.8674 53.3187 49.5095 54.1243 48.1127C54.9392 46.6995 55.713 45.2842 56.4447 43.8739ZM51.1639 46.4053C49.9134 48.5736 48.6295 50.6435 47.3261 52.5974C44.9522 52.7671 42.4997 52.8546 40 52.8546C37.5104 52.8546 35.0888 52.7772 32.7569 52.6259C31.401 50.6464 30.0892 48.5703 28.8466 46.424H28.8469C27.6076 44.2834 26.467 42.1248 25.4334 39.9783C26.4667 37.8268 27.6043 35.6657 28.8365 33.529L28.8362 33.5295C30.0717 31.3871 31.3719 29.3211 32.7153 27.354C35.0945 27.1742 37.5342 27.0803 39.9999 27.0803H40C42.4767 27.0803 44.9196 27.1749 47.2981 27.3563C48.621 29.309 49.9124 31.3683 51.1527 33.5109C52.4071 35.6777 53.5594 37.8243 54.6014 39.9297C53.5625 42.0713 52.4128 44.2396 51.1639 46.4053ZM58.214 8.24154C60.8929 9.78642 61.9347 16.0169 60.2515 24.1871C60.1442 24.7084 60.0233 25.2394 59.892 25.7775C56.573 25.0117 52.9688 24.4418 49.1954 24.0878C46.9972 20.9575 44.7192 18.1116 42.4327 15.6478C43.0475 15.0565 43.6614 14.4926 44.2727 13.9604C50.1788 8.82053 55.6989 6.7912 58.214 8.24154ZM40 32.7525C43.9453 32.7525 47.1437 35.9508 47.1437 39.8962C47.1437 43.8416 43.9453 47.04 40 47.04C36.0547 47.04 32.8563 43.8416 32.8563 39.8962C32.8563 35.9508 36.0547 32.7525 40 32.7525Z" fill="black"/>
</svg>