<svg width="70" height="80" viewBox="0 0 70 80" fill="none" xmlns="http://www.w3.org/2000/svg">
<path fill-rule="evenodd" clip-rule="evenodd" d="M21.5113 48.9532C20.2398 49.7484 18.3241 51.0366 16.8421 52.4377C14.409 54.7354 13.8999 57.9225 15.1834 58.6671C16.3707 59.3554 19.1425 58.5364 21.1263 56.3727C23.2083 54.101 24.0669 51.2211 23.1801 47.9519C23.0759 48.014 22.9737 48.0763 22.8733 48.1343L22.8755 48.1387L22.741 48.215C22.2233 48.5239 21.8003 48.7788 21.5113 48.9532ZM57.2414 47.9218C56.5212 49.487 56.4851 49.9906 56.7038 50.1473C57.7489 49.7719 59.4779 48.8671 59.4915 46.4425C59.4937 46.0794 59.4136 45.6897 59.2851 45.2826C58.1678 46.2719 57.5239 47.3077 57.2414 47.9218ZM68.4554 43.1894C65.6636 42.864 63.4851 43.2556 61.7944 43.9599C62.1075 44.7748 62.3481 45.6235 62.382 46.4786C62.4605 48.3552 61.1688 49.744 59.8227 50.7355C59.0365 51.3135 58.2001 51.6988 57.4979 51.9315C56.9365 52.1683 56.1903 52.413 55.6607 52.305C54.4931 52.0676 53.8716 51.0305 54.6659 48.7426C55.0949 47.5045 56.3325 45.6197 58.3302 43.9963C57.875 43.0589 57.3675 42.1038 57.1088 41.2264C56.5991 39.4966 56.4452 38.451 56.4452 38.451C56.4452 38.451 54.7985 41.8648 52.6742 44.9695C52.5517 45.1499 52.4295 45.3268 52.307 45.5032C52.7242 46.4728 53.0529 47.4982 53.0975 48.5321C53.1757 50.4084 52.3633 51.8273 51.0152 52.8166C50.2854 53.3547 49.507 53.7263 48.8389 53.9628C48.4118 54.1493 47.5431 54.4561 46.3077 54.5387C45.6321 54.5849 44.9821 54.5431 44.6193 54.268C44.1197 53.8906 44.0595 53.425 44.3182 52.7887C44.537 52.2487 46.1735 50.3805 47.5456 48.7448C47.9246 48.2931 48.2855 47.8315 48.6084 47.4042L48.6005 47.3858C48.6005 47.3861 48.8491 47.0651 49.2524 46.5051C48.7509 45.4253 48.1152 44.3012 47.8163 43.2818C47.3066 41.552 47.1524 40.5061 47.1524 40.5061C47.1524 40.5061 45.4833 44.7852 43.7445 48.201C42.3989 50.8465 41.5002 52.4496 41.0952 53.1521L41.0911 53.1803C41.0911 53.1803 41.0307 53.2828 40.9265 53.4433L40.8486 53.5735L40.8464 53.5614C40.3949 54.2281 39.3821 55.5343 38.3753 55.5343C35.6114 55.5343 36.6261 49.9209 36.6261 49.9209C36.6261 49.9209 35.8181 52.0001 34.9073 53.7843C34.1655 55.2392 33.4895 56.4719 32.0113 56.4719C31.5861 56.4719 30.9121 56.4596 30.3524 55.9275C29.0828 54.7214 28.1121 51.6586 28.3024 49.2865C28.4648 47.2696 28.7757 45.8726 29.2009 44.707C28.4427 45.1201 27.5663 45.6101 26.6738 46.134L25.3017 46.9426L25.346 47.023C26.4811 49.2187 26.784 54.0293 24.3089 57.7221C21.834 61.4168 17.2268 63.6647 12.7381 62.4164C11.2897 62.0128 9.10164 59.0165 10.9889 54.84C12.6536 51.1571 19.3066 47.6751 21.0599 46.8061L21.5411 46.5412C18.0455 43.4825 9.31629 39.3563 8.09293 33.0183C7.74785 31.2341 8.5843 26.9674 13.8231 22.0625C18.2295 17.9382 24.3592 14.7792 30.0215 12.7661C39.5344 9.38453 49.5854 11.3793 51.1317 17.4444C52.652 23.4092 47.4775 30.544 40.8505 33.1088C34.9336 35.3986 30.0415 35.0355 28.0317 34.3754C25.7472 33.6248 24.4073 32.1173 24.0805 31.2664C23.952 30.9333 23.7311 30.3736 24.0805 30.1808C24.2949 30.0624 24.3811 30.0906 24.9547 30.7247C25.5005 31.3268 27.6946 32.9426 31.8626 32.4747C42.8001 31.2486 49.3886 22.745 47.3066 18.169C45.8486 14.9659 37.4186 13.5208 26.8863 18.773C14.0295 25.1832 13.3317 30.4677 13.2215 32.4747C12.9205 37.9957 20.0307 40.8999 23.8779 45.0058L24.0261 45.1685C24.7461 44.7712 25.5065 44.3518 26.2525 43.9424C28.1922 42.8766 30.0215 41.8769 30.8738 41.4112C32.2279 39.443 34.9754 37.2711 36.9592 37.2711C40.1302 37.2711 39.0411 41.829 39.0411 41.829C39.0411 41.829 39.1054 41.6204 39.1915 41.6185C39.2818 41.616 39.6309 41.018 40.6098 41.3751C41.6166 41.7445 41.3878 42.4511 41.3941 42.5233C41.4061 42.6636 40.2046 46.7156 39.7053 49.3147C39.4663 50.555 39.6047 51.4584 39.6752 51.4584C39.7734 51.4584 39.9741 51.1431 40.1606 50.8041L40.1565 50.794C40.1565 50.794 40.2968 50.5372 40.5316 50.0756L40.5779 49.9791L40.5798 49.9835C40.8568 49.4415 41.2456 48.6447 41.6948 47.6574C42.5753 45.7168 45.9348 38.2246 46.2197 37.3958C46.5043 36.567 46.6528 35.71 46.7934 35.3425C46.9317 34.9753 48.1193 34.6983 49.507 34.7084C50.8949 34.7185 51.0357 35.3105 51.0453 35.433C51.0554 35.5553 50.3855 37.1992 50.231 38.361C50.0787 39.5231 50.2253 40.1028 50.3516 41.0784C50.4339 41.7164 50.8329 42.5255 51.3045 43.4426C52.7406 41.0943 55.2675 36.6028 55.5103 35.3444C55.6765 34.4837 55.9434 33.6587 56.0839 33.2912C56.2242 32.924 57.4098 32.6473 58.7975 32.6571C60.1855 32.6672 60.3258 33.2592 60.3359 33.3817C60.346 33.5042 59.6739 35.1478 59.5216 36.31C59.369 37.4699 59.5159 38.052 59.6419 39.0274C59.7505 39.8622 60.3961 40.9841 61.0362 42.2602C62.7829 41.3992 64.8389 40.8214 67.2459 40.8094C68.2426 40.8036 69.4001 40.9037 69.9978 41.0902V21.8897C69.9978 20.535 69.3036 19.2868 68.1305 18.6106L36.8091 0.507364C35.6379 -0.169121 34.2038 -0.169121 33.0323 0.507364L1.7973 18.6018C0.625898 19.2783 0 20.5288 0 21.8812V58.1032C0 59.4557 0.629727 60.7061 1.79922 61.3823L33.0846 79.491C34.2557 80.1697 35.6759 80.1697 36.8471 79.491L68.1466 61.3823C69.3178 60.7039 70 59.4554 70 58.1032V43.4645C69.6027 43.3474 69.0211 43.2553 68.4554 43.1894ZM34.7592 41.2926C34.0873 42.0451 32.9422 43.9857 32.4065 45.6099C31.3415 48.8348 31.8028 52.1122 32.5569 52.3091C33.4374 52.5396 34.8817 48.2289 35.5732 46.5429C36.0066 45.4871 37.6915 40.8012 37.3224 40.175C37.0342 39.6853 35.8403 40.0807 34.7592 41.2926ZM46.9444 52.1623C46.9444 52.1623 46.732 52.3633 46.8238 52.4193C46.9482 52.4937 47.217 52.3972 47.5099 52.2446C48.3384 51.7231 50.1975 50.4224 50.2016 48.4977C50.2016 48.4416 50.1994 48.3875 50.1956 48.3292C49.7644 48.8952 49.3671 49.3989 49.0242 49.8263C48.4385 50.5547 46.9444 52.1623 46.9444 52.1623Z" fill="black"/>
</svg>