<svg width="80" height="80" viewBox="0 0 80 80" fill="none" xmlns="http://www.w3.org/2000/svg">
<path d="M6.25 0H73.75C77.2018 0 80 2.79822 80 6.25V73.75C80 77.2018 77.2018 80 73.75 80H6.25C2.79822 80 0 77.2018 0 73.75V6.25C0 2.79822 2.79822 0 6.25 0Z" fill="black"/>
<path d="M47.0369 62.6484V71.2797C48.4406 71.9991 50.1009 72.5384 52.0175 72.8981C53.9341 73.2578 55.9541 73.4375 58.0778 73.4375C60.1472 73.4375 62.1134 73.2397 63.9759 72.8441C65.8384 72.4484 67.4719 71.7966 68.8753 70.8887C70.2791 69.9806 71.3903 68.7938 72.2094 67.3281C73.0281 65.8628 73.4375 64.0513 73.4375 61.8934C73.4375 60.3291 73.2034 58.9578 72.7356 57.78C72.2678 56.6022 71.5928 55.5547 70.7109 54.6378C69.8294 53.7206 68.7719 52.8981 67.5394 52.1697C66.3066 51.4416 64.9163 50.7538 63.3684 50.1066C62.2347 49.6388 61.2181 49.185 60.3181 48.7444C59.4184 48.3037 58.6534 47.8544 58.0238 47.3956C57.3937 46.9372 56.9078 46.4516 56.5659 45.9391C56.2241 45.4266 56.0531 44.8469 56.0531 44.1994C56.0531 43.6059 56.2059 43.0712 56.5119 42.5947C56.8178 42.1181 57.25 41.7091 57.8078 41.3675C58.3656 41.0256 59.0494 40.7606 59.8594 40.5716C60.6691 40.3828 61.5691 40.2884 62.5588 40.2884C63.2788 40.2884 64.0391 40.3425 64.8397 40.4503C65.6406 40.5581 66.4459 40.7244 67.2559 40.9494C68.0656 41.1741 68.8528 41.4572 69.6178 41.7991C70.3825 42.1406 71.0891 42.5363 71.7369 42.9856V34.9209C70.4231 34.4175 68.9878 34.0444 67.4313 33.8016C65.8747 33.5588 64.0884 33.4375 62.0728 33.4375C60.0212 33.4375 58.0778 33.6578 56.2422 34.0984C54.4066 34.5387 52.7912 35.2266 51.3966 36.1616C50.0019 37.0969 48.8997 38.2881 48.0897 39.7356C47.28 41.1831 46.875 42.9137 46.875 44.9278C46.875 47.4991 47.6172 49.6928 49.1022 51.5091C50.5869 53.325 52.8406 54.8625 55.8641 56.1213C57.0519 56.6069 58.1587 57.0831 59.1844 57.5509C60.2103 58.0184 61.0966 58.5037 61.8434 59.0072C62.5903 59.5106 63.1797 60.0591 63.6116 60.6525C64.0434 61.2459 64.2594 61.9203 64.2594 62.6756C64.2594 63.2328 64.1244 63.75 63.8544 64.2266C63.5847 64.7028 63.175 65.1166 62.6263 65.4672C62.0775 65.8178 61.3934 66.0919 60.5747 66.2897C59.7559 66.4875 58.7975 66.5866 57.6997 66.5866C55.8281 66.5866 53.9747 66.2584 52.1391 65.6019C50.3031 64.9456 48.6025 63.9613 47.0369 62.6484ZM32.6506 41.1694H43.75V34.0625H12.8125V41.1694H23.8577V72.8125H32.6506V41.1694Z" fill="#FFD0D0"/>
</svg>