<svg width="80" height="80" viewBox="0 0 80 80" fill="none" xmlns="http://www.w3.org/2000/svg">
<path d="M40.0385 0L75.3895 19.9967V60.0033L40.0385 80L4.6875 60.0033V19.9967L40.0385 0Z" fill="black"/>
<path d="M69.0801 58.6159L41.2128 74.3971V62.1243L58.5815 52.5596L69.0801 58.6159ZM70.9877 56.8951V23.9186L60.796 29.8015V51.0121L70.9877 56.8951ZM10.891 58.6159L38.7583 74.3838V62.111L21.3896 52.5596L10.891 58.6159ZM8.9834 56.8951V23.9186L19.1752 29.8015V51.0121L8.9834 56.8951ZM10.1707 21.7842L38.7583 5.61609V17.4887L20.4425 27.5604L20.2957 27.6404L10.1707 21.7842ZM69.7871 21.7842L41.2128 5.61609V17.4887L59.5153 27.5737L59.6621 27.6538L69.7871 21.7842Z" fill="#FFD0D0"/>
<path d="M38.758 59.3231L21.6294 49.8917V31.229L38.758 41.1139V59.3231ZM41.2125 59.3231L58.3411 49.905V31.229L41.2125 41.1139V59.3231ZM22.7766 29.0679L39.9852 19.6099L57.1805 29.0679L39.9852 38.9929L22.7766 29.0679Z" fill="#FFD0D0"/>
</svg>