<svg width="80" height="80" viewBox="0 0 80 80" fill="none" xmlns="http://www.w3.org/2000/svg">
<g clip-path="url(#clip0_100_285)">
<path fill-rule="evenodd" clip-rule="evenodd" d="M26.7708 0C19.4108 0 13.4375 5.97333 13.4375 13.3333C13.4375 20.6933 19.4108 26.6667 26.7708 26.6667C19.4108 26.6667 13.4375 32.64 13.4375 40C13.4375 47.36 19.4108 53.3333 26.7708 53.3333C19.4108 53.3333 13.4375 59.3067 13.4375 66.6667C13.4375 74.0267 19.4108 80 26.7708 80C34.1308 80 40.1042 74.0267 40.1042 66.6667L40.1042 40C40.1042 47.36 46.0775 53.3333 53.4375 53.3333C60.7975 53.3333 66.7708 47.36 66.7708 40C66.7708 32.64 60.7975 26.6667 53.4375 26.6667C60.7975 26.6667 66.7708 20.6933 66.7708 13.3333C66.7708 5.97333 60.7975 0 53.4375 0H26.7708ZM53.4375 26.6667H40.1042L40.1042 40C40.1042 32.64 46.0775 26.6667 53.4375 26.6667Z" fill="black"/>
</g>
<defs>
<clipPath id="clip0_100_285">
<rect width="80" height="80" fill="white"/>
</clipPath>
</defs>
</svg>